<svg xmlns="http://www.w3.org/2000/svg" xmlns:xlink="http://www.w3.org/1999/xlink" width="512" zoomAndPan="magnify" viewBox="0 0 384 383.999986" height="512" preserveAspectRatio="xMidYMid meet" version="1.0"><path fill="#3baaff" d="M 296.703125 133.941406 C 292.847656 128.886719 288.742188 123.957031 284.378906 119.089844 C 280.777344 115.046875 280.90625 108.917969 284.695312 105.0625 L 298.914062 90.785156 C 300.808594 88.886719 303.84375 89.015625 305.613281 90.972656 C 307.378906 92.996094 309.085938 95.015625 310.730469 97.039062 C 313.382812 100.386719 314.457031 104.683594 313.574219 108.855469 C 312.121094 116.121094 309.464844 124.148438 305.863281 132.742188 C 304.347656 136.59375 299.167969 137.226562 296.703125 133.941406 Z M 296.703125 133.941406 " fill-opacity="1" fill-rule="nonzero"/><path fill="#145b91" d="M 313.132812 228.34375 C 316.039062 223.414062 318.691406 218.425781 321.15625 213.433594 C 322.546875 210.527344 326.84375 210.96875 327.601562 214.128906 C 330.824219 227.082031 332.214844 239.78125 331.835938 251.851562 C 331.773438 254 331.265625 256.085938 330.316406 258.042969 C 328.800781 261.328125 327.160156 264.613281 325.328125 267.835938 C 323.9375 270.363281 320.207031 269.921875 319.449219 267.207031 C 317.617188 260.824219 315.152344 254.125 312.058594 247.175781 C 309.402344 241.046875 309.71875 234.03125 313.132812 228.34375 Z M 313.132812 228.34375 " fill-opacity="1" fill-rule="nonzero"/><path fill="#0f4066" d="M 283.433594 268.46875 C 288.171875 263.289062 292.59375 257.980469 296.703125 252.546875 C 299.230469 249.261719 304.285156 249.890625 305.863281 253.683594 C 309.84375 262.972656 312.5625 271.691406 314.015625 279.464844 C 314.585938 282.558594 313.761719 285.71875 311.804688 288.183594 C 309.972656 290.457031 308.140625 292.734375 306.117188 295.007812 C 304.09375 297.347656 300.492188 297.410156 298.34375 295.261719 L 283.75 280.601562 C 280.398438 277.253906 280.273438 271.945312 283.433594 268.46875 Z M 283.433594 268.46875 " fill-opacity="1" fill-rule="nonzero"/><path fill="#1b75bb" d="M 341.753906 164.019531 C 345.484375 183.355469 345.484375 203.195312 341.753906 222.53125 C 341.3125 224.804688 338.027344 224.804688 337.585938 222.46875 C 336.257812 215.074219 334.363281 207.554688 331.960938 199.972656 C 330.570312 195.613281 330.570312 190.875 331.960938 186.515625 C 334.363281 178.929688 336.257812 171.476562 337.585938 164.019531 C 338.027344 161.808594 341.3125 161.742188 341.753906 164.019531 Z M 341.753906 164.019531 " fill-opacity="1" fill-rule="nonzero"/><path fill="#2193eb" d="M 321.660156 174.253906 C 318.4375 167.558594 314.773438 160.921875 310.730469 154.351562 C 308.769531 151.128906 308.519531 147.148438 310.097656 143.734375 C 314.207031 135.078125 317.363281 126.800781 319.578125 119.027344 C 320.335938 116.4375 323.808594 115.996094 325.136719 118.398438 C 326.84375 121.429688 328.421875 124.527344 329.875 127.683594 C 331.078125 130.210938 331.773438 132.992188 331.835938 135.835938 C 332.152344 147.90625 330.570312 160.667969 327.285156 173.6875 C 326.589844 176.402344 322.863281 176.78125 321.660156 174.253906 Z M 321.660156 174.253906 " fill-opacity="1" fill-rule="nonzero"/><path fill="#1b75bb" d="M 227.761719 224.554688 L 208.742188 205.535156 C 201.984375 198.773438 201.984375 187.777344 208.742188 180.953125 L 226.375 163.324219 C 231.300781 158.394531 239.390625 158.519531 244.128906 163.640625 C 250.765625 170.78125 256.957031 177.984375 262.769531 185.125 C 266.5625 189.863281 266.5625 196.5625 262.769531 201.300781 C 256.578125 208.945312 249.878906 216.65625 242.738281 224.238281 C 238.757812 228.660156 231.933594 228.785156 227.761719 224.554688 Z M 227.761719 224.554688 " fill-opacity="1" fill-rule="nonzero"/><path fill="#145b91" d="M 279.199219 206.921875 C 284.695312 214.757812 289.625 222.46875 293.921875 229.988281 C 296.386719 234.285156 296.070312 239.65625 293.164062 243.636719 C 288.046875 250.585938 282.421875 257.410156 276.355469 264.046875 C 273.953125 266.636719 269.910156 266.699219 267.382812 264.234375 L 248.804688 245.660156 C 244.570312 241.425781 244.445312 234.601562 248.550781 230.242188 C 255.945312 222.339844 262.894531 214.441406 269.277344 206.542969 C 271.933594 203.386719 276.859375 203.574219 279.199219 206.921875 Z M 279.199219 206.921875 " fill-opacity="1" fill-rule="nonzero"/><path fill="#1b75bb" d="M 306.6875 163.578125 C 309.972656 169.199219 312.941406 174.824219 315.59375 180.511719 C 319.386719 188.597656 319.386719 198.015625 315.59375 206.101562 C 312.941406 211.789062 309.972656 217.414062 306.6875 223.035156 C 305.105469 225.753906 301.1875 225.816406 299.546875 223.101562 C 295.691406 216.589844 291.457031 209.957031 286.78125 203.257812 C 282.609375 197.253906 282.609375 189.355469 286.78125 183.355469 C 291.457031 176.65625 295.691406 170.023438 299.546875 163.511719 C 301.1875 160.796875 305.105469 160.796875 306.6875 163.578125 Z M 306.6875 163.578125 " fill-opacity="1" fill-rule="nonzero"/><path fill="#2193eb" d="M 268.773438 179.4375 C 263.023438 172.359375 256.828125 165.28125 250.257812 158.207031 C 245.203125 152.769531 245.394531 144.367188 250.574219 139.1875 L 266.941406 122.820312 C 269.71875 120.039062 274.207031 120.164062 276.796875 123.074219 C 281.851562 128.632812 286.59375 134.320312 291.015625 140.132812 C 295.3125 145.820312 295.816406 153.53125 292.152344 159.660156 C 288.359375 165.976562 284.191406 172.484375 279.640625 179.058594 C 277.050781 182.722656 271.679688 182.910156 268.773438 179.4375 Z M 268.773438 179.4375 " fill-opacity="1" fill-rule="nonzero"/><path fill="#69bdff" d="M 250.003906 87.246094 C 255.0625 91.097656 259.988281 95.207031 264.855469 99.566406 C 268.898438 103.167969 275.027344 103.042969 278.882812 99.25 L 293.164062 84.96875 C 295.058594 83.074219 294.933594 80.042969 292.972656 78.273438 C 290.953125 76.503906 288.929688 74.796875 286.90625 73.152344 C 283.558594 70.5 279.261719 69.425781 275.089844 70.308594 C 267.824219 71.761719 259.800781 74.417969 251.207031 78.019531 C 247.351562 79.597656 246.71875 84.71875 250.003906 87.246094 Z M 250.003906 87.246094 " fill-opacity="1" fill-rule="nonzero"/><path fill="#b3ddff" d="M 155.601562 70.816406 C 160.53125 67.910156 165.523438 65.253906 170.515625 62.789062 C 173.421875 61.402344 172.980469 57.105469 169.820312 56.34375 C 156.867188 53.121094 144.164062 51.734375 132.097656 52.113281 C 129.949219 52.175781 127.863281 52.679688 125.902344 53.628906 C 122.617188 55.144531 119.332031 56.789062 116.109375 58.621094 C 113.582031 60.011719 114.023438 63.738281 116.742188 64.496094 C 123.125 66.328125 129.820312 68.792969 136.773438 71.890625 C 142.902344 74.542969 149.851562 74.164062 155.601562 70.816406 Z M 155.601562 70.816406 " fill-opacity="1" fill-rule="nonzero"/><path fill="#69bdff" d="M 115.414062 100.449219 C 120.59375 95.710938 125.902344 91.289062 131.335938 87.179688 C 134.625 84.652344 133.992188 79.597656 130.199219 78.019531 C 120.910156 74.039062 112.191406 71.320312 104.417969 69.867188 C 101.324219 69.300781 98.164062 70.121094 95.699219 72.078125 C 93.425781 73.910156 91.148438 75.746094 88.9375 77.765625 C 86.601562 79.789062 86.535156 83.390625 88.683594 85.539062 L 103.34375 100.199219 C 106.632812 103.484375 112.003906 103.609375 115.414062 100.449219 Z M 115.414062 100.449219 " fill-opacity="1" fill-rule="nonzero"/><path fill="#d4ecff" d="M 219.863281 42.128906 C 200.527344 38.398438 180.6875 38.398438 161.351562 42.128906 C 159.078125 42.570312 159.078125 45.855469 161.414062 46.296875 C 168.808594 47.625 176.328125 49.519531 183.910156 51.921875 C 188.269531 53.3125 193.007812 53.3125 197.371094 51.921875 C 204.953125 49.519531 212.410156 47.625 219.863281 46.296875 C 222.140625 45.855469 222.140625 42.570312 219.863281 42.128906 Z M 219.863281 42.128906 " fill-opacity="1" fill-rule="nonzero"/><path fill="#b3ddff" d="M 209.691406 62.285156 C 216.390625 65.507812 223.023438 69.171875 229.597656 73.21875 C 232.820312 75.175781 236.800781 75.429688 240.210938 73.847656 C 248.867188 69.742188 257.144531 66.582031 264.917969 64.371094 C 267.507812 63.613281 267.953125 60.136719 265.550781 58.808594 C 262.515625 57.105469 259.421875 55.523438 256.261719 54.070312 C 253.734375 52.871094 250.953125 52.175781 248.109375 52.113281 C 236.042969 51.796875 223.277344 53.375 210.261719 56.660156 C 207.542969 57.292969 207.164062 61.019531 209.691406 62.285156 Z M 209.691406 62.285156 " fill-opacity="1" fill-rule="nonzero"/><path fill="#2193eb" d="M 159.332031 156.183594 L 178.351562 175.203125 C 185.109375 181.964844 196.105469 181.964844 202.929688 175.203125 L 220.558594 157.574219 C 225.488281 152.644531 225.363281 144.558594 220.242188 139.816406 C 213.105469 133.183594 205.898438 126.992188 198.761719 121.175781 C 194.019531 117.386719 187.324219 117.386719 182.582031 121.175781 C 174.9375 127.371094 167.230469 134.066406 159.644531 141.207031 C 155.285156 145.1875 155.160156 152.011719 159.332031 156.183594 Z M 159.332031 156.183594 " fill-opacity="1" fill-rule="nonzero"/><path fill="#3baaff" d="M 177.023438 104.746094 C 169.1875 99.25 161.480469 94.320312 153.960938 90.023438 C 149.664062 87.5625 144.292969 87.875 140.308594 90.785156 C 133.359375 95.902344 126.535156 101.523438 119.902344 107.589844 C 117.308594 109.992188 117.246094 114.035156 119.710938 116.5625 L 138.289062 135.140625 C 142.523438 139.375 149.347656 139.5 153.707031 135.394531 C 161.605469 128 169.503906 121.050781 177.402344 114.667969 C 180.5625 112.015625 180.371094 107.085938 177.023438 104.746094 Z M 177.023438 104.746094 " fill-opacity="1" fill-rule="nonzero"/><path fill="#69bdff" d="M 220.371094 77.199219 C 214.746094 73.910156 209.121094 70.941406 203.4375 68.289062 C 195.347656 64.496094 185.933594 64.496094 177.84375 68.289062 C 172.15625 70.941406 166.535156 73.910156 160.910156 77.199219 C 158.191406 78.777344 158.128906 82.695312 160.847656 84.339844 C 167.355469 88.191406 173.988281 92.425781 180.6875 97.101562 C 186.691406 101.273438 194.589844 101.273438 200.59375 97.101562 C 207.289062 92.425781 213.925781 88.191406 220.433594 84.339844 C 223.152344 82.695312 223.085938 78.777344 220.371094 77.199219 Z M 220.371094 77.199219 " fill-opacity="1" fill-rule="nonzero"/><path fill="#3baaff" d="M 204.511719 115.109375 C 211.585938 120.859375 218.664062 127.054688 225.742188 133.625 C 231.175781 138.679688 239.578125 138.492188 244.761719 133.308594 L 261.125 116.941406 C 263.90625 114.164062 263.78125 109.675781 260.875 107.085938 C 255.3125 102.03125 249.625 97.292969 243.8125 92.867188 C 238.125 88.570312 230.417969 88.066406 224.289062 91.730469 C 217.96875 95.523438 211.460938 99.691406 204.890625 104.242188 C 201.222656 106.832031 201.035156 112.265625 204.511719 115.109375 Z M 204.511719 115.109375 " fill-opacity="1" fill-rule="nonzero"/><path fill="#0b2c47" d="M 131.273438 299.367188 C 126.21875 295.515625 121.289062 291.40625 116.425781 287.046875 C 112.382812 283.445312 106.25 283.570312 102.398438 287.363281 L 88.117188 301.578125 C 86.222656 303.476562 86.347656 306.507812 88.304688 308.277344 C 90.328125 310.046875 92.351562 311.753906 94.371094 313.394531 C 97.722656 316.050781 102.019531 317.125 106.1875 316.238281 C 113.457031 314.785156 121.480469 312.132812 130.074219 308.53125 C 133.929688 307.015625 134.558594 301.832031 131.273438 299.367188 Z M 131.273438 299.367188 " fill-opacity="1" fill-rule="nonzero"/><path fill="#0c2130" d="M 225.679688 315.796875 C 220.75 318.703125 215.757812 321.359375 210.765625 323.824219 C 207.859375 325.210938 208.300781 329.507812 211.460938 330.269531 C 224.414062 333.492188 237.117188 334.878906 249.183594 334.5 C 251.332031 334.4375 253.417969 333.933594 255.375 332.984375 C 258.664062 331.46875 261.949219 329.824219 265.171875 327.992188 C 267.699219 326.601562 267.257812 322.875 264.539062 322.117188 C 258.15625 320.285156 251.460938 317.820312 244.507812 314.722656 C 238.378906 312.070312 231.363281 312.386719 225.679688 315.796875 Z M 225.679688 315.796875 " fill-opacity="1" fill-rule="nonzero"/><path fill="#0b2c47" d="M 265.804688 286.097656 C 260.621094 290.839844 255.3125 295.261719 249.878906 299.367188 C 246.59375 301.894531 247.226562 306.949219 251.015625 308.53125 C 260.304688 312.511719 269.027344 315.230469 276.796875 316.683594 C 279.894531 317.25 283.054688 316.429688 285.519531 314.46875 C 287.792969 312.636719 290.066406 310.804688 292.34375 308.785156 C 294.679688 306.761719 294.742188 303.160156 292.59375 301.011719 L 277.933594 286.414062 C 274.585938 283.066406 269.277344 282.9375 265.804688 286.097656 Z M 265.804688 286.097656 " fill-opacity="1" fill-rule="nonzero"/><path fill="#000000" d="M 161.351562 344.421875 C 180.6875 348.148438 200.527344 348.148438 219.863281 344.421875 C 222.140625 343.980469 222.140625 340.695312 219.800781 340.25 C 212.410156 338.925781 204.890625 337.027344 197.304688 334.628906 C 192.945312 333.238281 188.207031 333.238281 183.847656 334.628906 C 176.265625 337.027344 168.808594 338.925781 161.351562 340.25 C 159.140625 340.695312 159.078125 343.980469 161.351562 344.421875 Z M 161.351562 344.421875 " fill-opacity="1" fill-rule="nonzero"/><path fill="#0c2130" d="M 171.589844 324.328125 C 164.890625 321.105469 158.257812 317.441406 151.683594 313.394531 C 148.460938 311.4375 144.480469 311.183594 141.070312 312.765625 C 132.410156 316.871094 124.132812 320.03125 116.363281 322.242188 C 113.769531 323 113.328125 326.476562 115.730469 327.804688 C 118.761719 329.507812 121.859375 331.089844 125.019531 332.542969 C 127.546875 333.742188 130.328125 334.4375 133.171875 334.5 C 145.238281 334.816406 158.003906 333.238281 171.019531 329.953125 C 173.738281 329.257812 174.117188 325.527344 171.589844 324.328125 Z M 171.589844 324.328125 " fill-opacity="1" fill-rule="nonzero"/><path fill="#145b91" d="M 221.886719 230.429688 L 202.867188 211.410156 C 196.105469 204.648438 185.109375 204.648438 178.285156 211.410156 L 160.65625 229.039062 C 155.726562 233.96875 155.855469 242.054688 160.972656 246.796875 C 168.113281 253.429688 175.316406 259.621094 182.457031 265.4375 C 187.195312 269.226562 193.894531 269.226562 198.632812 265.4375 C 206.277344 259.242188 213.988281 252.546875 221.570312 245.40625 C 225.992188 241.425781 226.121094 234.601562 221.886719 230.429688 Z M 221.886719 230.429688 " fill-opacity="1" fill-rule="nonzero"/><path fill="#0f4066" d="M 204.257812 281.863281 C 212.09375 287.363281 219.800781 292.292969 227.320312 296.589844 C 231.617188 299.050781 236.988281 298.738281 240.96875 295.828125 C 247.921875 290.710938 254.746094 285.085938 261.378906 279.023438 C 263.96875 276.621094 264.035156 272.578125 261.570312 270.050781 L 242.992188 251.472656 C 238.757812 247.238281 231.933594 247.113281 227.574219 251.21875 C 219.675781 258.613281 211.777344 265.5625 203.878906 271.945312 C 200.71875 274.597656 200.910156 279.527344 204.257812 281.863281 Z M 204.257812 281.863281 " fill-opacity="1" fill-rule="nonzero"/><path fill="#0b2c47" d="M 160.910156 309.351562 C 166.535156 312.636719 172.15625 315.609375 177.84375 318.261719 C 185.933594 322.054688 195.347656 322.054688 203.4375 318.261719 C 209.121094 315.609375 214.746094 312.636719 220.371094 309.351562 C 223.085938 307.773438 223.152344 303.855469 220.433594 302.210938 C 213.925781 298.355469 207.289062 294.125 200.59375 289.449219 C 194.589844 285.277344 186.691406 285.277344 180.6875 289.449219 C 173.988281 294.125 167.355469 298.355469 160.847656 302.210938 C 158.128906 303.855469 158.128906 307.773438 160.910156 309.351562 Z M 160.910156 309.351562 " fill-opacity="1" fill-rule="nonzero"/><path fill="#0f4066" d="M 176.769531 271.4375 C 169.691406 265.6875 162.617188 259.496094 155.539062 252.925781 C 150.105469 247.871094 141.699219 248.058594 136.519531 253.242188 L 120.152344 269.605469 C 117.375 272.386719 117.5 276.875 120.40625 279.464844 C 125.964844 284.519531 131.652344 289.257812 137.46875 293.679688 C 143.152344 297.976562 150.863281 298.484375 156.992188 294.820312 C 163.3125 291.027344 169.820312 286.855469 176.390625 282.308594 C 180.054688 279.71875 180.246094 274.347656 176.769531 271.4375 Z M 176.769531 271.4375 " fill-opacity="1" fill-rule="nonzero"/><path fill="#0f4066" d="M 84.578125 252.671875 C 88.433594 257.726562 92.539062 262.65625 96.898438 267.519531 C 100.5 271.566406 100.375 277.695312 96.585938 281.550781 L 82.304688 295.828125 C 80.40625 297.726562 77.375 297.597656 75.605469 295.640625 C 73.835938 293.617188 72.128906 291.597656 70.488281 289.574219 C 67.832031 286.226562 66.757812 281.929688 67.644531 277.757812 C 69.097656 270.492188 71.75 262.464844 75.351562 253.871094 C 76.933594 250.019531 82.050781 249.386719 84.578125 252.671875 Z M 84.578125 252.671875 " fill-opacity="1" fill-rule="nonzero"/><path fill="#2193eb" d="M 68.148438 158.269531 C 65.242188 163.195312 62.589844 168.1875 60.125 173.179688 C 58.734375 176.085938 54.4375 175.644531 53.679688 172.484375 C 50.457031 159.53125 49.066406 146.832031 49.445312 134.761719 C 49.507812 132.613281 50.015625 130.527344 50.960938 128.570312 C 52.476562 125.285156 54.121094 122 55.953125 118.777344 C 57.34375 116.25 61.070312 116.691406 61.832031 119.40625 C 63.664062 125.789062 66.128906 132.488281 69.222656 139.4375 C 71.878906 145.566406 71.5 152.519531 68.148438 158.269531 Z M 68.148438 158.269531 " fill-opacity="1" fill-rule="nonzero"/><path fill="#3baaff" d="M 97.785156 118.082031 C 93.046875 123.261719 88.621094 128.570312 84.515625 134.003906 C 81.988281 137.289062 76.933594 136.65625 75.351562 132.867188 C 71.371094 123.578125 68.65625 114.859375 67.203125 107.085938 C 66.632812 103.988281 67.453125 100.832031 69.414062 98.367188 C 71.246094 96.089844 73.078125 93.816406 75.101562 91.605469 C 77.121094 89.265625 80.722656 89.203125 82.871094 91.351562 L 97.53125 106.011719 C 100.816406 109.296875 100.945312 114.667969 97.785156 118.082031 Z M 97.785156 118.082031 " fill-opacity="1" fill-rule="nonzero"/><path fill="#1b75bb" d="M 39.460938 222.53125 C 35.734375 203.195312 35.734375 183.355469 39.460938 164.019531 C 39.902344 161.742188 43.191406 161.742188 43.632812 164.082031 C 44.960938 171.476562 46.855469 178.996094 49.257812 186.578125 C 50.644531 190.9375 50.644531 195.675781 49.257812 200.035156 C 46.855469 207.617188 44.960938 215.074219 43.632812 222.53125 C 43.191406 224.804688 39.902344 224.804688 39.460938 222.53125 Z M 39.460938 222.53125 " fill-opacity="1" fill-rule="nonzero"/><path fill="#145b91" d="M 59.617188 212.359375 C 62.839844 219.054688 66.507812 225.691406 70.550781 232.261719 C 72.507812 235.484375 72.761719 239.464844 71.183594 242.878906 C 67.074219 251.535156 63.914062 259.8125 61.703125 267.585938 C 60.945312 270.175781 57.46875 270.617188 56.144531 268.214844 C 54.4375 265.183594 52.859375 262.085938 51.402344 258.929688 C 50.203125 256.398438 49.507812 253.621094 49.445312 250.777344 C 49.128906 238.707031 50.710938 225.945312 53.996094 212.925781 C 54.625 210.210938 58.355469 209.832031 59.617188 212.359375 Z M 59.617188 212.359375 " fill-opacity="1" fill-rule="nonzero"/><path fill="#1b75bb" d="M 153.515625 161.996094 L 172.535156 181.015625 C 179.296875 187.777344 179.296875 198.773438 172.535156 205.597656 L 154.90625 223.226562 C 149.976562 228.15625 141.890625 228.027344 137.152344 222.910156 C 130.515625 215.769531 124.324219 208.566406 118.511719 201.425781 C 114.71875 196.6875 114.71875 189.988281 118.511719 185.25 C 124.703125 177.605469 131.402344 169.894531 138.542969 162.3125 C 142.523438 157.953125 149.347656 157.828125 153.515625 161.996094 Z M 153.515625 161.996094 " fill-opacity="1" fill-rule="nonzero"/><path fill="#2193eb" d="M 102.082031 179.6875 C 96.585938 171.855469 91.65625 164.144531 87.359375 156.625 C 84.894531 152.328125 85.210938 146.957031 88.117188 142.976562 C 93.234375 136.027344 98.859375 129.203125 104.925781 122.566406 C 107.324219 119.976562 111.371094 119.914062 113.898438 122.378906 L 132.476562 140.953125 C 136.707031 145.1875 136.835938 152.011719 132.726562 156.371094 C 125.335938 164.269531 118.382812 172.171875 112.003906 180.070312 C 109.347656 183.226562 104.417969 183.039062 102.082031 179.6875 Z M 102.082031 179.6875 " fill-opacity="1" fill-rule="nonzero"/><path fill="#1b75bb" d="M 74.53125 223.035156 C 71.246094 217.414062 68.277344 211.789062 65.621094 206.101562 C 61.832031 198.015625 61.832031 188.597656 65.621094 180.511719 C 68.277344 174.824219 71.246094 169.199219 74.53125 163.578125 C 76.109375 160.859375 80.027344 160.796875 81.671875 163.511719 C 85.527344 170.023438 89.757812 176.65625 94.4375 183.355469 C 98.605469 189.355469 98.605469 197.253906 94.4375 203.257812 C 89.757812 209.957031 85.460938 216.589844 81.671875 223.101562 C 80.027344 225.816406 76.109375 225.753906 74.53125 223.035156 Z M 74.53125 223.035156 " fill-opacity="1" fill-rule="nonzero"/><path fill="#145b91" d="M 112.445312 207.175781 C 118.195312 214.253906 124.386719 221.332031 130.957031 228.40625 C 136.015625 233.84375 135.824219 242.246094 130.644531 247.425781 L 114.277344 263.792969 C 111.496094 266.574219 107.011719 266.445312 104.417969 263.539062 C 99.363281 257.980469 94.625 252.292969 90.203125 246.480469 C 85.90625 240.792969 85.398438 233.082031 89.066406 226.953125 C 92.855469 220.636719 97.027344 214.128906 101.574219 207.554688 C 104.167969 203.890625 109.601562 203.699219 112.445312 207.175781 Z M 112.445312 207.175781 " fill-opacity="1" fill-rule="nonzero"/></svg>